<?xml version="1.0" standalone="no"?>
<!DOCTYPE svg PUBLIC "-//W3C//DTD SVG 20010904//EN"
 "http://www.w3.org/TR/2001/REC-SVG-20010904/DTD/svg10.dtd">
<svg version="1.0" xmlns="http://www.w3.org/2000/svg"
 width="512.000000pt" height="512.000000pt" viewBox="0 0 512.000000 512.000000"
 preserveAspectRatio="xMidYMid meet">
<metadata>
Created by potrace 1.14, written by Peter Selinger 2001-2017
</metadata>
<g transform="translate(0.000000,512.000000) scale(0.100000,-0.100000)"
fill="#000000" stroke="none">
<path d="M2657 4694 c-1 -2 -33 -4 -71 -5 -60 -2 -133 -13 -239 -34 -61 -12
-196 -59 -272 -95 -341 -161 -606 -460 -723 -820 -18 -52 -34 -107 -37 -122
-3 -16 -7 -38 -10 -50 -22 -108 -29 -322 -12 -383 51 -192 189 -334 377 -391
82 -25 219 -23 302 5 216 72 355 250 373 480 8 104 10 111 33 165 75 167 302
232 462 131 142 -90 190 -307 98 -450 -55 -85 -65 -92 -718 -500 -528 -330
-536 -335 -623 -415 -153 -141 -254 -316 -296 -518 -25 -117 -29 -644 -6 -756
17 -83 79 -212 131 -276 106 -127 264 -211 430 -228 87 -9 1570 -7 1644 2 276
33 512 271 547 550 8 70 8 2385 -1 2466 -46 419 -284 802 -641 1032 -118 75
-311 152 -463 183 -65 14 -279 35 -285 29z m245 -458 c353 -90 626 -374 704
-731 16 -73 18 -178 19 -1274 1 -924 -1 -1202 -11 -1230 -7 -20 -27 -53 -45
-75 -62 -74 -13 -70 -889 -71 -468 -1 -799 2 -820 8 -51 14 -105 61 -131 114
-22 45 -23 56 -22 317 0 301 7 350 65 458 37 70 131 168 208 219 30 20 255
161 500 314 603 376 602 375 710 484 102 102 148 176 189 301 25 77 39 230 29
320 -45 410 -425 708 -833 654 -177 -24 -311 -88 -430 -208 -74 -74 -103 -113
-142 -191 -50 -98 -66 -159 -82 -305 -8 -76 -12 -87 -40 -112 -33 -30 -61 -34
-107 -18 -48 18 -66 53 -65 126 5 373 251 723 606 862 75 30 182 57 250 65 84
9 246 -4 337 -27z"/>
</g>
</svg>
