<svg xmlns="http://www.w3.org/2000/svg" viewBox="0 0 559 589.01"><defs><style>.cls-1{fill:#414747;}</style></defs><title>Asset 1</title><g id="Layer_2" data-name="Layer 2"><g id="Layer_1-2" data-name="Layer 1"><path class="cls-1" d="M516.83,518.6c-.3.15-.68.5-.87.43-1-.4-2-.89-2.92-1.38a86.29,86.29,0,0,0-27.7-9.09,76.2,76.2,0,0,0-22.71.24c-4.87.78-9.71,1.81-14.54,2.89a66.84,66.84,0,0,1-28.46.42c-6.65-1.38-13.21-3.06-19.83-4.55-3.42-.78-6.86-1.53-10.32-2.14a51.39,51.39,0,0,0-20.47.52c-4.33,1-8.67,2.05-13,3.2a128.44,128.44,0,0,1-28.46,4.37c-3.93.16-7.86.21-11.78.46-7.36.46-14.71,1-22.06,1.56-.71.05-1.42.18-2.21.29.24,1.22,1.29,1.15,2,1.41a68.14,68.14,0,0,1,14.26,7.46,32.37,32.37,0,0,1,7.69,7.31,105.7,105.7,0,0,1,9.45,15.81,37.3,37.3,0,0,0,12.92,14.37c8.19,5.31,17.31,6.9,27.21,5.12a68.37,68.37,0,0,0,7.92-2,58.57,58.57,0,0,1,20.8-2.43,84.31,84.31,0,0,0,11-.07A41.15,41.15,0,0,0,424,556.42a44.84,44.84,0,0,0,9.74-8.65,134.77,134.77,0,0,0,10.42-14c2.56-3.79,5.07-7.62,7.75-11.33,1.59-2.19,3.42-4.24,5.23-6.28a14.39,14.39,0,0,1,9.79-4.77A74.82,74.82,0,0,1,500,515.47a113,113,0,0,1,24.74,12.91,16.39,16.39,0,0,1,4,4,172.55,172.55,0,0,1,24.42,47.49c.69,2,1.4,4,2.11,6,.23.67.47,1.34.76,2a1.57,1.57,0,0,0,2,1,1.81,1.81,0,0,0,.9-2.18,13.41,13.41,0,0,0-.58-2.06c-2.12-5.79-4.16-11.61-6.4-17.34a162,162,0,0,0-24.45-41.83,123.11,123.11,0,0,0-20.64-20c-3.83-3-7.79-5.84-11.73-8.71a18.23,18.23,0,0,1-3.86-3.63A89.71,89.71,0,0,1,484.16,483a44.34,44.34,0,0,1-5.43-27.61,85.41,85.41,0,0,1,5.49-21.53c1.6-4.11,3.37-8.17,5.09-12.24a137,137,0,0,0,5.92-16.19,74.94,74.94,0,0,0,2.94-17.18c.33-8.16-.77-16-4.21-23.37a53.91,53.91,0,0,0-9.29-13.35,105.75,105.75,0,0,0-8.53-8.54c-8.52-7.36-13.81-16.69-17.13-27.3a203.58,203.58,0,0,1-6.13-24.56,92.56,92.56,0,0,0-7.49-23.7,80.11,80.11,0,0,0-4.19-7.81,206.46,206.46,0,0,1-10.34-19c-2-4.14-4.37-8.11-6.56-12.17-1.23-2.29-2.4-4.62-3.62-6.92a10.37,10.37,0,0,0-.74-1.08c-.85.74-.37,1.48-.32,2.12a109.22,109.22,0,0,1-2.79,34.86c-1.18,4.85-2.31,9.7-3.46,14.56a86.31,86.31,0,0,0-2.28,16.88A65,65,0,0,0,424.27,331c1.41,1.9,2.81,3.81,4.23,5.7a5.78,5.78,0,0,1,1,5.08c-.52,2.13-1.08,4.25-1.73,6.34-1.56,5-3.22,10-4.74,15a82.8,82.8,0,0,0-3.19,16,52.62,52.62,0,0,0,6,30.78,42.55,42.55,0,0,0,10.52,12.38c2.9,2.43,6,4.6,9.14,6.79,2.82,2,5.73,3.86,8.58,5.8A40.9,40.9,0,0,1,467,449.34,104.84,104.84,0,0,1,474.89,466a16.76,16.76,0,0,1,.8,2.71,48.19,48.19,0,0,0,6.92,18.16c.19.3.31.64.61,1.25-.6-.05-1.08.05-1.38-.13-8.18-4.91-16.44-9.69-24.14-15.3a83.89,83.89,0,0,1-16-15.59c-3-3.68-6.06-7.27-9.33-10.69a47.87,47.87,0,0,0-12.57-9.28q-9.37-4.92-18.82-9.68c-4.48-2.26-9-4.42-13.56-6.6A37.6,37.6,0,0,1,375,411.51c-5.06-5.87-9.5-12.06-12.12-19.46a43.2,43.2,0,0,1-2.46-17.61,72.15,72.15,0,0,1,3.36-16.75c1.88-5.94,3.84-11.86,5.66-17.81A81.82,81.82,0,0,0,372.94,318,64,64,0,0,0,368,291.87q-4.22-10.37-8.93-20.51a241.18,241.18,0,0,1-9.57-24.87c-2-6-4.24-11.82-6.39-17.72-.07-.17-.33-.26-.68-.54-.17.93-.38,1.74-.45,2.56-.7,7.33-1.57,14.66-2,22A63.26,63.26,0,0,1,334.72,275c-1.64,3.7-3.11,7.47-4.55,11.25a28.84,28.84,0,0,0-.13,21.51,128.43,128.43,0,0,1,6.31,23.37,75.09,75.09,0,0,0,5,16.32c2.71,6.15,6.86,11.3,11.51,16.07,1.57,1.61,3.19,3.17,5,4.94a61,61,0,0,0-.4,14.55,53,53,0,0,0,3.84,13.69,61.57,61.57,0,0,0,7.36,12.43c-.93.6-1.41,0-1.85-.22-15.91-9.75-30.71-20.81-43.47-34.34-5.76-6.11-11.4-12.34-17.7-18-4.6-4.11-4.56-4.16-6-10.07-2.13-8.81-1.87-17.57,1.94-26.23,1.62-3.71,3.34-7.38,5-11.08,1.92-4.25,4-8.45,5.69-12.79,6.47-16.78,6.2-33.24-.71-49.16-2.78-6.4-6.09-12.56-9.28-18.76-3.36-6.52-7.24-12.76-10-19.6a89,89,0,0,1-6.68-28.73q-.49-9.53-.94-19c-.53-11.71-3.11-22.94-6.52-34a67.92,67.92,0,0,0-7.38-14.88c-.86.18-.66.86-.7,1.4-.14,2.28-.23,4.57-.37,6.85a57.59,57.59,0,0,1-9,27.2,136.59,136.59,0,0,0-8.94,16.58q-1.12,2.52-2.18,5.07a43,43,0,0,0-3.25,20.27c0,.36,0,.72.07,1.08a47.08,47.08,0,0,1-3.72,24.49c-2.22,5.32-4.25,10.71-6.21,16.12a67.66,67.66,0,0,0-4.18,26.75,44.25,44.25,0,0,0,9.64,25.56,134.1,134.1,0,0,0,13.44,14.15c6.24,6,12.63,11.82,18.71,17.95A110.65,110.65,0,0,1,290.22,336c1.85,3,3.28,6.28,4.84,9.46a12.3,12.3,0,0,1,.58,2.45,17.59,17.59,0,0,1-1.84-1,146.07,146.07,0,0,0-24.38-14.25c-10.75-5-21-10.95-31.22-16.84-3.61-2.07-7-4.5-10.45-6.84a10.74,10.74,0,0,1-2.6-2.38A66.49,66.49,0,0,1,215,287.92a31.26,31.26,0,0,1-1.73-9.46,55.21,55.21,0,0,1,3.51-21c1.3-3.31,2.69-6.58,4-9.9,1-2.51,1.87-5.05,2.75-7.59a74.25,74.25,0,0,0,2.86-36.8,53.48,53.48,0,0,0-8.2-20.69c-2.64-4.05-5.63-7.88-8.58-11.72-5.13-6.66-10.29-13.3-14.52-20.57a134.8,134.8,0,0,1-12.2-28.72c-.62-2-1.34-4.05-2.07-6.05a7.34,7.34,0,0,0-.94-1.38,10.08,10.08,0,0,0-1,1.49c-1.16,2.7-2.31,5.42-3.38,8.15-2.37,6-4.66,12.12-7.06,18.15a162.06,162.06,0,0,0-5.68,17,64.21,64.21,0,0,0-.46,32.13,96,96,0,0,0,11.56,28.17,194.54,194.54,0,0,0,17.53,24.49c4,4.7,7.85,9.47,11.69,14.28a42.49,42.49,0,0,1,5.42,8.3,15.11,15.11,0,0,1,1.65,7.6,41.89,41.89,0,0,0,4.64,22.12c.42.84.75,1.72,1.22,2.81a3.68,3.68,0,0,1-2.47-1.3,158.09,158.09,0,0,1-15.89-16.23q-2.74-3.24-5.44-6.54a16.81,16.81,0,0,1-3.19-6.29c-1.23-4.46-2.42-8.94-3.7-13.39a193,193,0,0,0-7.48-21.11,43.28,43.28,0,0,0-18.11-21.27c-2.36-1.39-4.64-2.91-7-4.32a26,26,0,0,1-6.28-5.2c-4.13-4.73-8.14-9.54-11.19-15.06-2.63-4.76-5.43-9.44-7.79-14.34a64.48,64.48,0,0,1-6.65-28.63,110.15,110.15,0,0,1,1.93-21.24c1.44-7.15,2.91-14.29,4.35-21.43a142.57,142.57,0,0,0,3-24.11,84.79,84.79,0,0,0-.66-14,45.46,45.46,0,0,0-6-17.38q-3.36-5.64-7-11.12c-2.07-3.17-4.19-6.31-6.42-9.36a144.44,144.44,0,0,1-14.41-24C95.24,1.68,94.8,1,94.25,0A16,16,0,0,0,93,2C89.39,10,85.73,18.09,82.19,26.19a87.94,87.94,0,0,0-6.11,19.16c-1.91,10.37-1.42,20.42,2.82,29.93a51.29,51.29,0,0,0,7,11.46c6.3,7.76,13.79,14.29,21.51,20.62,2.65,2.18,5.16,4.54,7.6,7a20.24,20.24,0,0,1,3,4,9.94,9.94,0,0,1,1.23,7.51,96.88,96.88,0,0,0-1.42,24.84,62.43,62.43,0,0,0,2.54,13.68c.32,1.12.66,2.22,1.18,4a8.31,8.31,0,0,1-2.59-3A49.06,49.06,0,0,0,108.25,154c-5.53-4.34-12-6.85-18.94-8.35a104.77,104.77,0,0,0-18.49-2.15c-5.87-.22-11.73-.43-17.61-.49a115.18,115.18,0,0,1-44.45-9.73c-2.43-1-4.89-2-7.35-3A7.49,7.49,0,0,0,0,130.12a9.15,9.15,0,0,0,.81,1.29c2.42,2.43,4.81,4.89,7.31,7.25a85.63,85.63,0,0,1,18.59,24.88,78.63,78.63,0,0,1,3.81,10.32c1.89,5.88,3.45,11.86,6,17.5A62.31,62.31,0,0,0,45,205.64a33.87,33.87,0,0,0,5.32,5.18c5.55,4.31,12,5.74,19.21,4.52a58.11,58.11,0,0,0,10.67-3.18c2.09-.78,4.15-1.67,6.25-2.43a25.1,25.1,0,0,1,8.32-1.66,15.25,15.25,0,0,1,6.73,1.32,8.72,8.72,0,0,1,5.45,8.1c0,1.55-.18,3.12-.22,4.68-.09,3.25-.36,6.51-.16,9.73A20.22,20.22,0,0,0,112.26,245a19.86,19.86,0,0,0,8.59,5,47.49,47.49,0,0,0,14,2.22c4.65.06,9.31-.07,14-.24a57.82,57.82,0,0,1,19.74,2.92,28.31,28.31,0,0,1,13.29,9.27,32.15,32.15,0,0,1,3.64,6.06A55.63,55.63,0,0,0,193,280.91a156.8,156.8,0,0,0,16.16,16.95c5.73,5,11.39,10,17.32,14.76,7,5.58,14.91,9.8,22.93,13.84s15.92,7.76,23.84,11.72a125,125,0,0,1,20.87,13.08c.9.7,1.73,1.49,3.18,2.75a24.61,24.61,0,0,1-2.88-.48c-6.73-2.15-13.66-2.06-20.68-.79-6.32,1.15-12.62,2.4-18.94,3.57-2.06.39-4.13.71-6.21,1a34.2,34.2,0,0,1-17.89-2.3,49.15,49.15,0,0,1-14.48-9.07c-5.38-4.84-10.85-9.54-16.61-14a65.8,65.8,0,0,1-12.57-12.49,71.69,71.69,0,0,1-10.19-19c-1.58-4.35-3-8.77-4.79-13-4.69-10.91-13-17.83-24.87-20.54a84.37,84.37,0,0,0-11.94-1.54c-4.13-.33-8.3-.36-12.46-.51-8-.3-15.81-1.3-23.14-4.32a15.07,15.07,0,0,0-2-.52c-.81.59-.45,1.18-.37,1.73.7,4.69,2.79,8.82,5,12.89a122.3,122.3,0,0,0,6.52,11,57.14,57.14,0,0,0,30.32,22.64c7.23,2.38,14.74,3.84,22.2,5.48,3.9.85,7.8,1.74,11.64,2.79a26.32,26.32,0,0,1,11.5,6.34,18.23,18.23,0,0,1,1.68,2.38c-1.55-.36-2.46-.55-3.36-.77a53.5,53.5,0,0,0-11.92-1.56,43.42,43.42,0,0,0-20.07,4.5c-4.15,2-8.27,4.06-12.41,6.08a93.44,93.44,0,0,1-19.25,6.88,60.71,60.71,0,0,1-26.62.21c-4.39-.89-8.71-2.07-13-3.15S70.61,335.1,66.14,334c-7.76-1.83-15.71-1.73-23.71-.77-.84.1-1.67.28-2.49.42-.16.92.54.77.88.81,15.88,1.62,28.83,9,40.78,18.35,5.16,4,9.55,8.86,14,13.6A96.16,96.16,0,0,0,112.11,381a49.41,49.41,0,0,0,15.27,7,34.33,34.33,0,0,0,18.16,0c5.23-1.5,10.41-3.25,15.63-4.83,4-1.21,8.06-2.45,12.15-3.44a45.41,45.41,0,0,1,18.27-.62c1.2.2,2.41.36,3.6.56,12.1,2.09,22.83-1.37,32.43-9.25,1.93-1.58,3.73-3.3,5.6-5s3.94-3.47,6.58-4.11a14.17,14.17,0,0,1,3.25-.59,68.9,68.9,0,0,0,12.45-1.46c5-.95,10-1.76,14.93-2.85,10.3-2.25,20-.51,29.47,2.72a26.1,26.1,0,0,1,11,7.05c3.59,3.92,7.34,7.71,11,11.57a195.1,195.1,0,0,0,35.18,28.81,329.46,329.46,0,0,0,43.15,24,66.83,66.83,0,0,1,7,3.52c-.39.31-.58.56-.74.56-5-.07-10-.13-15.05-.27-1.59,0-3.16-.27-4.74-.45a34.17,34.17,0,0,1-14.58-5c-3-1.91-6-3.92-8.81-6.05-5.72-4.27-11.43-8.52-17.54-12.27a101.25,101.25,0,0,0-15.32-7.81,63.57,63.57,0,0,0-22-4.49,52.81,52.81,0,0,0-26.08,6.08c-5.2,2.68-10.37,5.44-15.69,7.86-10.47,4.76-21.44,7.85-32.55,10.41a181,181,0,0,1-23.73,3.85c-6.87.64-13.68,1.74-20.48,3.05a46.51,46.51,0,0,0-7.15,1.74c.94.09,1.88.16,2.81.27,2.54.31,5.09.57,7.6,1A50.42,50.42,0,0,1,218,444.35c4.25,3.6,8.54,7.16,12.92,10.62a53.17,53.17,0,0,0,12.29,7.25,34.58,34.58,0,0,0,28.52-.28c3.64-1.61,7.24-3.32,10.88-4.94a36.18,36.18,0,0,1,8.84-2.77c3.72-.61,7.07-.07,9.92,2.31a43.53,43.53,0,0,0,3.66,2.83c2.07,1.4,4.14,2.8,6.33,4a24.25,24.25,0,0,0,17,2.36,54.51,54.51,0,0,0,18.54-7.55,155.9,155.9,0,0,0,14-10.55c3.79-3,7.79-5.81,11.76-8.62a11.35,11.35,0,0,1,7.31-2.31c1.34.08,2.7,0,4,.22a138.49,138.49,0,0,0,17.18,1c3.91.05,7.81.35,11.7.68a17.87,17.87,0,0,1,8.05,2.93A53.55,53.55,0,0,1,436,455.44a92.62,92.62,0,0,0,23.78,22.72c.68.45,1.32.95,2,1.43-.44.91-1.09.58-1.6.56-3.18-.1-6.36-.2-9.53-.38-2.19-.13-4.38-.32-6.55-.61a19.76,19.76,0,0,1-9.86-4.12c-2.79-2.21-5.53-4.48-8.32-6.69a54.35,54.35,0,0,0-11.24-6.92,33.23,33.23,0,0,0-15.56-3.08c-2.69.12-5.4.28-8.08.64-8.07,1.06-16.12,2.21-24.18,3.37a52.13,52.13,0,0,0-10.41,2.51c-.24.93.5,1,1,1.21a37.26,37.26,0,0,1,13.43,9.22,56.26,56.26,0,0,0,6.46,5.57,19.28,19.28,0,0,0,15.83,3.53c2.66-.52,5.33-1,8-1.71a31,31,0,0,1,15.28-.14c1,.26,2.13.44,3.2.68a36.26,36.26,0,0,0,14.57.61c7.49-1.35,14.91-.94,22.37-.74A40.94,40.94,0,0,1,479,490.17c11.22,7.64,22.2,15.57,32.82,24,1.76,1.39,3.38,3,5.06,4.47l.1.27ZM190.75,192.05c-.32.53-.76.45-1.26.36q-4.26-.81-8.55-1.57c-1.43-.25-2.88-.4-4.3-.71a21.37,21.37,0,0,1-10-5.19,8.42,8.42,0,0,1-2.87-6.22A63.53,63.53,0,0,1,166.28,158a23,23,0,0,1,.93-2.17c.32,1.05.52,1.56.63,2.09.55,2.43.93,4.91,1.62,7.29a39.46,39.46,0,0,0,6.71,13.57A59.6,59.6,0,0,0,190.81,192a1.31,1.31,0,0,0,0,.28c0,.06.09.1.14.15C190.88,192.33,190.81,192.19,190.75,192.05ZM344,246.3l-.24-.73c.09,0,.26.08.26.11a4.13,4.13,0,0,1-.13.61,10.18,10.18,0,0,1,.52,1.68,90.16,90.16,0,0,0,4.21,17.29c.73,2.13,1.32,4.31,2,6.48a54.09,54.09,0,0,1,2.21,18.76c-.34,5.65-.73,11.31-1.13,17a12,12,0,0,1-.51,1.9,8.37,8.37,0,0,1-1.62-1.23,21.28,21.28,0,0,1-2.28-3.56,22,22,0,0,1-1.67-10.15c.12-3.12.29-6.26.2-9.37-.16-5.48-1.37-10.64-4.6-15.11a8,8,0,0,1-.62-1.31,62.66,62.66,0,0,0,2.68-17.54c0-1.2.05-2.41.17-3.61C343.41,247.08,343.77,246.7,344,246.3ZM272.74,125.47c-.09-.26-.17-.52-.25-.77h.33c-.06.25-.13.5-.2.75,1,.91.73,2.2.81,3.36a79.41,79.41,0,0,1-1.78,21.91c-1.21,5.81-2.66,11.59-4,17.39a93.14,93.14,0,0,0-2.5,14.29,5.57,5.57,0,0,1-.42,1.25c-.43-.2-.72-.24-.81-.4-1.89-3-3.89-5.92-5.58-9A20.46,20.46,0,0,1,256.2,166a11,11,0,0,1,1.4-6.65c1.81-3.08,3.52-6.21,5.38-9.26,4.42-7.23,7.74-14.81,9-23.09A5.85,5.85,0,0,1,272.74,125.47Zm3.2,7.28c-.08-.19-.16-.37-.23-.55l.43.05c-.1.16-.2.32-.31.48,1.11.76,1.1,2.05,1.4,3.17A122,122,0,0,1,281.51,163c.1,3.24.32,6.46.45,9.7a32.54,32.54,0,0,1,0,3.95,116.35,116.35,0,0,1-4.07,23.24,58.48,58.48,0,0,1-4.61,11.19c-.26.49-.49,1.14-1.43,1a6.44,6.44,0,0,1-.68-1.1,54.13,54.13,0,0,1-3.2-10.54,69.21,69.21,0,0,1,.51-27.93c1.07-4.74,2.27-9.46,3.39-14.18a117,117,0,0,0,3.58-24A6.46,6.46,0,0,1,275.94,132.75ZM153.15,230.56c-4.78,1.25-8.71,2.3-12.65,3.3a34.4,34.4,0,0,1-4,.81c-9.33,1.25-17.35-1.42-24.33-7-1.73-1.38-2.87-3-2.25-5.57a14.5,14.5,0,0,0,.26-4.31,16.44,16.44,0,0,0-.79-4.54c-1.54-4.21-4.83-6.6-9.15-7.72-4.61-1.21-9.21-.62-13.77.89-2.11.7-4.17,1.59-6.26,2.38a59.1,59.1,0,0,1-11,3.4,20.9,20.9,0,0,1-17.39-4.29,30.92,30.92,0,0,1-6.64-7.34,77.48,77.48,0,0,1-7.5-14.85,9.94,9.94,0,0,1-.23-2.23c1.06.89,1.83,1.46,2.5,2.11a33.91,33.91,0,0,0,10.81,6.81,43,43,0,0,0,24.75,2.35c2.91-.53,5.8-1.22,8.7-1.84a37.26,37.26,0,0,1,12.08-.66c6,.7,10.81,3.13,13.79,8.43a63.53,63.53,0,0,0,4.3,6.5,48.69,48.69,0,0,0,24.92,18.2c3.33,1.06,6.61,2.24,9.9,3.41C150.34,229.21,151.38,229.77,153.15,230.56Zm91.45-10.2c.16.95.28,1.52.34,2.1a41.63,41.63,0,0,0,10.35,23,123.78,123.78,0,0,0,9.47,9.56c4.45,4.08,9.13,7.9,13.65,11.9a37.53,37.53,0,0,1,7.5,8.92A19,19,0,0,1,288.78,287c-.15,2.28-.17,4.56-.27,6.85,0,.55.16,1.21-.77,1.56-.33-.42-.74-.84-1-1.31a33.83,33.83,0,0,0-14-12.3q-5.28-2.65-10.7-5.05a88.52,88.52,0,0,1-15.34-8.43,33.61,33.61,0,0,1-9-9,12.6,12.6,0,0,1-2.21-9.13c.19-1.2.24-2.4.4-3.6,1.19-9,4.4-17.4,8-25.73C244,220.81,244.11,220.76,244.6,220.36ZM428.33,357.9a7.38,7.38,0,0,1,.83,1.1,69.84,69.84,0,0,0,9.13,14.3,51.82,51.82,0,0,0,25.31,17.77c1.13.36,2.22.83,3.41,1.28.23,7.54.47,14.95.69,22.36a.52.52,0,0,1-.13.32,2.86,2.86,0,0,1-.43.37c-.7-.09-1.54-.16-2.36-.31a84.62,84.62,0,0,1-26.66-9.66A61.25,61.25,0,0,1,426,396.76a8.52,8.52,0,0,1-2.74-5.54,54,54,0,0,1-.28-10.41,90.71,90.71,0,0,1,4.63-21.67A7.18,7.18,0,0,1,428.33,357.9ZM314.48,422.12a21.79,21.79,0,0,1-3,1.58c-2.36.73-4.74,1.41-7.14,2-2.65.62-5.34,1-8,1.63-7.08,1.74-13.56,4.74-18.86,10-1.93,1.93-3.91,3.83-5.68,5.89a34.4,34.4,0,0,1-14.65,9.94A43.13,43.13,0,0,1,240.88,456a9.16,9.16,0,0,1-5.7-1.9c-4.13-3.37-8.31-6.67-12.46-10a3.24,3.24,0,0,1-.54-.75c.24-.3.35-.6.53-.65a59.83,59.83,0,0,0,13.74-6.57,5.82,5.82,0,0,1,2.42-.8c7.29-.72,14.24-2.91,21.14-5.38q9.27-3.32,18.57-6.55c11.1-3.85,22.24-3.95,33.4-2C312.55,421.51,313.1,421.72,314.48,422.12ZM70.09,147a5.58,5.58,0,0,1,1.34-.31c7.83.36,15.54,1.22,22.94,3.62a40.6,40.6,0,0,1,16.74,10.57,11.39,11.39,0,0,1,1.87,2.55,34.68,34.68,0,0,1,4.55,16.3c0,3,0,6,0,9a44.91,44.91,0,0,0,6.5,24.47c.24.39.86.78.27,1.57a21.71,21.71,0,0,1-2-1.5,52.09,52.09,0,0,1-8.52-10.38c-2.46-3.89-4.86-7.82-7.31-11.72-5.22-8.32-11.75-15.38-20.56-20.15A9.6,9.6,0,0,1,81,164.86c-.68-2.39-1.55-4.72-2.43-7.05A20,20,0,0,0,72,148.73C71.4,148.24,70.83,147.68,70.09,147ZM235.92,259.9c.8.82,1.08,1,1.28,1.31a37.6,37.6,0,0,0,10.4,9.54,92.16,92.16,0,0,0,14.56,7.65,95.93,95.93,0,0,1,13.44,6.75A30.64,30.64,0,0,1,286,295.67c1.32,2.23,2.56,4.54,2.61,7.28.12,6.4,1.41,12.56,2.8,18.71.9,3.94,1.83,7.87,2.73,11.8.12.54.42,1.15-.48,1.67-.32-.46-.66-.92-1-1.39a127.74,127.74,0,0,0-18.17-22.14c-6.87-6.67-13.87-13.21-20.79-19.84a75,75,0,0,1-12.36-14.54A37.29,37.29,0,0,1,235.9,262C235.85,261.51,235.91,261.05,235.92,259.9Zm180.16,43.38a12.89,12.89,0,0,1,1.07,1.32,17.89,17.89,0,0,0,4.23,4.74c4.37,3.45,8.73,6.93,13.2,10.25a65.69,65.69,0,0,1,9.85,8.67c2.77,3.07,5.43,6.25,8,9.46a46.22,46.22,0,0,1,4.3,6.06,67.44,67.44,0,0,1,7.2,18.47,129.61,129.61,0,0,1,2.79,23.44,5.31,5.31,0,0,1-.35,1.39,11.41,11.41,0,0,1-1.45-.77A31.55,31.55,0,0,1,455.41,375c-1.64-3.4-3.13-6.89-4.46-10.44a75,75,0,0,0-16.33-26.33,85.43,85.43,0,0,1-9.81-12.09,63,63,0,0,1-9-20.76C415.69,304.76,415.33,304.07,416.08,303.28ZM288.66,265c-.54-.61-.77-.75-.83-1a113.25,113.25,0,0,0-9.22-20.34,88.55,88.55,0,0,0-11.85-16.77c-3.14-3.38-6.39-6.66-9.55-10a29.06,29.06,0,0,1-7-12.61,15.94,15.94,0,0,1-.46-3.52c-.12-3.6,0-7.22-.27-10.79A43.2,43.2,0,0,1,253.55,168a13.05,13.05,0,0,1,1-1.49c.26,1,.45,1.54.54,2.09a22.77,22.77,0,0,0,3.11,8.64c1.38,2.21,2.74,4.43,4.24,6.55a13.74,13.74,0,0,1,2.64,7.93,52.34,52.34,0,0,0,6.23,24c2.44,4.46,5.14,8.77,7.63,13.21a93.58,93.58,0,0,1,4.38,8.51c3.52,8.13,4.86,16.85,5.49,25.73A14.05,14.05,0,0,1,288.66,265ZM90,176.15c-3,.35-5.57.57-8.11,1-2.31.38-4.59,1-6.88,1.48a74.48,74.48,0,0,1-20.13,2,38.29,38.29,0,0,1-19-6.19,6.43,6.43,0,0,1-2.92-3.82,56.65,56.65,0,0,0-2.42-6.68,79.7,79.7,0,0,0-10.07-16.64c-.31-.41-.58-.85-1.14-1.68.84.25,1.24.26,1.47.46,5.91,4.82,12.9,7.55,20.32,9.55,5.59,1.5,11.11,3.25,16.6,5A142,142,0,0,1,85.59,173,17.51,17.51,0,0,1,90,176.15ZM363.92,510.76c.15-.17.27-.46.44-.51a58.09,58.09,0,0,1,16.77-2.41,10.41,10.41,0,0,1,3.21.5,24.09,24.09,0,0,1,10.83,7.27c2.47,3,5.1,5.91,7.82,8.7a30.12,30.12,0,0,0,11.75,7.9,5.55,5.55,0,0,1,1.19.82,17.16,17.16,0,0,1-1.74,1.19c-3.66,1.85-7.3,3.77-11,5.47-2.82,1.28-5.77,2.26-8.66,3.39a7.2,7.2,0,0,1-5.38,0,18.76,18.76,0,0,1-3.82-1.93,22.39,22.39,0,0,1-7.16-8.21c-1-2-2-4-3-6-2.79-5.78-5.89-11.34-11-15.47C364,511.26,364,511,363.92,510.76ZM249.05,206.85l1.43,2.46a47.47,47.47,0,0,0,3.23,5.48,75.33,75.33,0,0,0,6.11,6.9,103.79,103.79,0,0,1,12.64,14.81,123.71,123.71,0,0,1,11.3,20.87,72.89,72.89,0,0,1,5.16,17.37c.1.66.42,1.39-.5,2a7.1,7.1,0,0,1-.85-1.05,48.48,48.48,0,0,0-10.72-12.22c-3.76-3.25-7.6-6.43-11.33-9.72a75.3,75.3,0,0,1-11.4-12.14,40.57,40.57,0,0,1-8-23.2C246,214.44,247.53,210.91,249.05,206.85ZM285,452.52a45.84,45.84,0,0,1,7.7-8.6,35.54,35.54,0,0,1,14.59-7.12c2.64-.61,5.29-1.24,7.89-2a19.42,19.42,0,0,0,11.66-8.67c.1-.17.43-.21.65-.31,4.14,1,13.22,4.34,15.22,5.65a28.88,28.88,0,0,1-1.63,3.6,87.39,87.39,0,0,1-5.52,8.31,35.58,35.58,0,0,1-23.71,13.33c-2.94.42-5.61.31-7.6-2.06a4,4,0,0,0-.56-.44,14.84,14.84,0,0,0-13-3C288.81,451.58,286.91,452.07,285,452.52Zm-54.73-94c-.56.35-.83.64-1.14.69a81.58,81.58,0,0,1-19.07,1.44,5.57,5.57,0,0,1-4.28-2.17A54.33,54.33,0,0,0,186.59,344c-3.15-1.43-6.45-2.61-9.71-3.83-4.39-1.63-8.84-3.14-13.21-4.82a21.71,21.71,0,0,1-7.57-4.64c-.4-.39-1-.7-.76-1.51a4.46,4.46,0,0,1,.86-.58c.8-.33,1.62-.61,2.44-.88a41,41,0,0,1,16.78-1.35c8.19.84,15.37,4,22,8.35a110.26,110.26,0,0,1,14.36,11.63A58.62,58.62,0,0,0,229,357.77,11.57,11.57,0,0,1,230.27,358.51ZM179.65,257.1c-1.15-.75-1.81-1.22-2.51-1.61a38.87,38.87,0,0,0-4.71-2.54,55.16,55.16,0,0,0-20.16-4.13c-2.93,0-5.87.16-8.81.18-3.42,0-6.85.11-10.26,0a43.74,43.74,0,0,1-11.77-2.14,15.83,15.83,0,0,1-10.9-11.26,35,35,0,0,1-.84-6,5.14,5.14,0,0,1,.47-1.63l1.08.79,1.13.86c8.49,6.39,18.06,8.44,28.85,5.59,1.56-.4,3.1-.86,4.66-1.25,1.91-.48,3.83-.94,5.76-1.34a10.55,10.55,0,0,1,9,1.72c.75.58,1.58,1,2.38,1.58,7.12,4.72,11.78,11.52,16,18.7A13.15,13.15,0,0,1,179.65,257.1Zm.92-5c-.17.25-.22.4-.31.43a.33.33,0,0,1-.32-.08c-.69-1.1-1.37-2.21-2.05-3.32a49.52,49.52,0,0,0-23.68-20.2c-3.86-1.62-7.8-3.11-11.78-4.44a16.06,16.06,0,0,1-6-3.68c-3.09-2.91-5-6.53-6.69-10.34a52.12,52.12,0,0,1-4-23.74c0-.16.27-.32.41-.48.11,0,.27,0,.32.08.55.75,1.13,1.5,1.63,2.28a68,68,0,0,0,13.64,15.75,118,118,0,0,0,12.85,9.53c2.73,1.69,5.37,3.52,8,5.4a31.93,31.93,0,0,1,10.3,12.42c.3.64.63,1.27,1,1.9A94.34,94.34,0,0,1,180.57,252.11ZM325.4,425.26a16.82,16.82,0,0,1-1.32,2.27,17.82,17.82,0,0,1-8.95,5.79c-2.73.82-5.5,1.47-8.26,2.12a36.68,36.68,0,0,0-18.48,10.61c-2.32,2.41-4.66,4.82-7.06,7.16a12,12,0,0,1-2.94,2.24c-3,1.46-6.09,2.81-9.18,4.1-9,3.76-17.57,3-25.89-.83a16,16,0,0,1-1.6-1.05c1.61-.2,2.54-.33,3.47-.41A48.26,48.26,0,0,0,256,455a36.52,36.52,0,0,0,16.71-10.79c1.28-1.5,2.65-3,4.06-4.35a39.46,39.46,0,0,1,10.08-7.61,52.22,52.22,0,0,1,14.46-4.56c5.35-1,10.7-1.87,15.19-5.27C319.62,423.2,322.62,423.64,325.4,425.26ZM174.06,357.41c-5,1.16-9.62,2.19-14.17,3.29-3.24.78-6.48,1.6-9.69,2.53a6.74,6.74,0,0,1-5.92-.82,35,35,0,0,1-5.05-3.9c-2.53-2.48-4.84-5.17-7.26-7.77a26.69,26.69,0,0,0-8.8-6.53c-.45-.2-1.21-.2-1.14-1.08,4.1-1.45,8.23-2.75,12.22-4.38s8.13-3.67,12.24-5.54a10,10,0,0,1,1.1,1,43.58,43.58,0,0,0,12.63,10.25,75.68,75.68,0,0,1,6.6,4.25A22.84,22.84,0,0,1,173,355,19.34,19.34,0,0,1,174.06,357.41Zm303.27-8.3a4.66,4.66,0,0,1,1.07.6c2.47,2.71,4.9,5.45,7.35,8.17,3,3.32,4.17,7.36,4.31,11.78a33.3,33.3,0,0,1-4.8,18.47,73.73,73.73,0,0,1-5.17,7.22,121.77,121.77,0,0,0-9.52,13.24c-.14.26-.52.39-.94.68a12.74,12.74,0,0,1-.43-4.36c-.15-10.07-.37-20.14-1.38-30.14a4.81,4.81,0,0,1,1.13-3.68,37,37,0,0,0,8-20.55A7.39,7.39,0,0,1,477.33,349.11Zm-178.75-120a3.77,3.77,0,0,1,.69.7c2.38,4.62,4.82,9.21,7.11,13.88A76.79,76.79,0,0,1,311.77,258a13.26,13.26,0,0,1,.22,5.68,36,36,0,0,1-4.12,11.7q-2.81,5-5.92,9.81a88,88,0,0,0-10.13,20.4c-.11.36-.09,1-1.05.89a23.29,23.29,0,0,1-.3-2.69q0-8.46.17-16.92c.07-4.21.29-8.41.29-12.61a9.36,9.36,0,0,1,1.18-4.86A53.09,53.09,0,0,0,297.34,255a64.27,64.27,0,0,0,1.15-22.6C298.36,231.36,297.79,230.31,298.58,229.14Zm104.91,312.8a12.12,12.12,0,0,1-3.15,5.35,38,38,0,0,1-12.27,8.93,67.36,67.36,0,0,1-11.6,3.91,64.54,64.54,0,0,0-9.48,3.22,14.45,14.45,0,0,1-3.9,1.1c-8.76,1.2-16.76-.43-23.86-5.26A11.78,11.78,0,0,1,338,558c1.54-.4,2.69-.72,3.85-1a18,18,0,0,0,10.43-6.7c1.28-1.67,2.44-3.41,3.65-5.12l1.23-1.74c3.86,1,7.55,2.11,11.31,2.92a58.26,58.26,0,0,0,23.31-.74C395.59,544.6,399.31,543.28,403.49,541.94ZM200.8,165.19a3.56,3.56,0,0,1,.83.63c4.11,5.33,8.18,10.68,12.3,16a15.66,15.66,0,0,1,3.22,10,34.08,34.08,0,0,1-2.37,12.42c-1.19,3.08-2.5,6.12-3.74,9.19-1.82,4.54-3.73,9.05-4.63,13.86a5.66,5.66,0,0,1-.73,1.18c-.45-1.39-.81-2.49-1.16-3.59-2.45-7.8-4.78-15.64-7.4-23.38a16.34,16.34,0,0,1-.27-9.88c.72-2.57,1.58-5.12,2.52-7.64a28.44,28.44,0,0,0,1.43-16.33C200.64,166.85,200.1,166.06,200.8,165.19ZM473.7,453.07l-.71.29-1.66-3.09c-4.13-7.71-9.33-14.49-16.94-19.22-2.43-1.51-4.82-3.07-7.14-4.73-3.18-2.29-6.4-4.54-9.36-7.08a40.73,40.73,0,0,1-12.61-19,9,9,0,0,1-.08-2c2.18,1.65,4,3.14,6,4.5a85.57,85.57,0,0,0,33,13.72,10.3,10.3,0,0,1,3.81,1c.86,6,1.69,11.86,2.55,17.76S473,447.05,473.7,453.07ZM441.17,320a40,40,0,0,1-5.42-10.22,84.73,84.73,0,0,1-5.12-29.42c0-4.68.15-9.36.22-14.05a81.26,81.26,0,0,0-1.51-18.9,7.62,7.62,0,0,1,.11-1.67c2.52,4.41,4.83,8.51,7.19,12.59,3.2,5.52,6.43,11,8.6,17.07a23.22,23.22,0,0,1,1.34,7c.21,5.45-.83,10.79-2.05,16.12-1.58,6.88-3,13.76-2.9,20.78C441.63,319.37,441.52,319.46,441.17,320ZM104.87,192.35c-1.28.34-1.3.37-2,.09a25.41,25.41,0,0,0-11.8-1.74c-2.68.19-5.38.57-8,1s-5.31,1.2-8,1.67a42.11,42.11,0,0,1-24.35-2.57C45,188.37,40.42,184.48,36.3,180a5.59,5.59,0,0,1-1.38-4.19c.95.46,1.68.77,2.37,1.15a41,41,0,0,0,21.26,5.17,83,83,0,0,0,15.74-1.94c2.9-.63,5.79-1.33,8.71-1.8a46.49,46.49,0,0,1,6.23-.44A8.84,8.84,0,0,1,96,180.87,60.78,60.78,0,0,1,104.87,192.35Zm14.23-146a16,16,0,0,1,1.08,1.33,47.31,47.31,0,0,1,6.2,18.4,97,97,0,0,1,.24,16.53c-.62,10.14-2.8,20.1-4.93,30.07,0,.27-.37.49-.78,1-.37-1.15-.64-2-.94-2.9-1.35-3.92-2.66-7.85-4.07-11.75-2-5.45-4-10.89-6.07-16.3a13.32,13.32,0,0,1-.56-8.11,42.55,42.55,0,0,1,2.16-6.58c1.4-3.27,3-6.45,4.55-9.67a26,26,0,0,0,2.71-10.15A13.63,13.63,0,0,1,119.1,46.38ZM291.63,267.09l-.71-.1c-.07-1.18-.14-2.37-.2-3.55a95.6,95.6,0,0,0-2.86-18.71,66.93,66.93,0,0,0-8.56-19c-1.11-1.79-2.56-3.4-3.16-5.54.91-1.76,1.86-3.49,2.72-5.24a56.6,56.6,0,0,0,4.83-16.05,3.17,3.17,0,0,1,1-2.37c.24.71.41,1.13.53,1.57A88.33,88.33,0,0,0,293,218.23a33.27,33.27,0,0,1,3.68,12.16c.28,2.13.56,4.26.7,6.41a63.27,63.27,0,0,1-4.27,27C292.71,265,292.14,266,291.63,267.09Zm18.18,250.64a11.78,11.78,0,0,1,4-.54c7.35-.38,14.7-.6,22-1.18a16.08,16.08,0,0,1,8.16,1.18,49.9,49.9,0,0,1,6.25,3.45,52.67,52.67,0,0,1,9.31,8.2c5.63,5.95,11.72,11.35,19,15.36.36.2.91.36.45,1.13-.65,0-1.38.08-2.1.07a49.05,49.05,0,0,1-22.62-5.75,124.71,124.71,0,0,1-12.53-7.56A86.81,86.81,0,0,0,316,519.82c-1.51-.43-3-.87-4.51-1.33C311.05,518.36,310.68,518.13,309.81,517.73Zm156.65-156.8-.81,0c-.26-.88-.52-1.76-.77-2.64a61.78,61.78,0,0,0-12.72-23.94c-2-2.32-3.9-4.76-6-7a10.79,10.79,0,0,1-2.84-6.74c-.1-1.19-.16-2.39-.15-3.58a61.14,61.14,0,0,1,1.39-11.87c1.15-5.71,2.24-11.42,3.37-17.14a6.54,6.54,0,0,1,.74-1.23c.41,2,.74,3.51,1,5a213,213,0,0,0,6,24.21,63.71,63.71,0,0,0,8.45,18.29,21.14,21.14,0,0,1,3.44,8.47,38,38,0,0,1-.11,14.33C467.23,358.4,466.8,359.66,466.46,360.93Zm-95.53,71.81c-11.73.46-26.69-2.4-33.9-6.07-.09-.39-.2-.84-.3-1.3-1.84-8.51-7.13-13.91-15.43-16.58a43.7,43.7,0,0,0-11.78-2.1c-2.44-.09-4.88-.09-7.33-.1a32.61,32.61,0,0,1-9.71-1.3,9.38,9.38,0,0,1-1.45-.85,17.49,17.49,0,0,1,2-.88,49.06,49.06,0,0,1,16-1.95,61.57,61.57,0,0,1,23.78,5.79,113.38,113.38,0,0,1,17.9,10.41c6.69,4.71,13.3,9.53,19.94,14.31C370.76,432.18,370.77,432.32,370.93,432.74ZM176.12,215.33c4.14,1.25,8.31,1.13,12.45,1.22a26.4,26.4,0,0,1,4.72.45,36.81,36.81,0,0,1,5.19,1.52,5.34,5.34,0,0,1,3.35,3.83c2.57,8.39,5,16.83,6.72,25.46.74,3.72,1,7.55,1.5,11.34a12.33,12.33,0,0,1-.26,2.19c-.68-.74-1-1-1.25-1.37-4.42-5.54-8.79-11.11-13.25-16.62A237.2,237.2,0,0,1,180,223,31.06,31.06,0,0,1,176.12,215.33Zm-11.46-29.44a6.69,6.69,0,0,1,.87.18,5.86,5.86,0,0,1,.89.57,23.28,23.28,0,0,0,13.05,5.47c1.81.23,3.62.42,5.42.67a15.53,15.53,0,0,1,5.78,1.91,7.94,7.94,0,0,1,3.8,4.49q2.61,8.12,5.18,16.23c.15.48.65,1,0,1.57a2.26,2.26,0,0,1-.76,0,33.13,33.13,0,0,0-12.49-2,52.48,52.48,0,0,1-5.47-.32c-4.58-.5-7.77-2.69-9.54-7a111.11,111.11,0,0,1-6.06-18.15C165.06,188.47,164.91,187.3,164.66,185.89Zm26.51,173.83c-4,2.55-6.06,5.65-8.17,8.7a35.84,35.84,0,0,1-5.23,6.25,6.3,6.3,0,0,1-3.25,1.66,121.82,121.82,0,0,0-16.76,4.74c-4.23,1.4-8.5,2.68-12.77,3.92a28.46,28.46,0,0,1-8.39,1.1c-.53,0-1.25.18-1.41-.73,1.07-.58,2.13-1.21,3.24-1.74a35.43,35.43,0,0,0,10.63-8.09c1.95-2.08,3.71-4.32,5.54-6.5,1.19-1.42,2.3-2.92,3.55-4.3a10.13,10.13,0,0,1,5.34-3.16,85.27,85.27,0,0,1,14.56-2.42c3.54-.18,7.09-.07,10.63,0A15.22,15.22,0,0,1,191.17,359.72ZM178.72,125.78a245.21,245.21,0,0,0,12.44,64.13,10.05,10.05,0,0,1-2-.84c-2.46-2-5-4-7.3-6.19-8-7.56-11.92-17.12-12.9-28.08a19.68,19.68,0,0,1,1.45-9.56c2.51-6,4.81-12.05,7.22-18.07A10.24,10.24,0,0,1,178.72,125.78ZM88,343.12c1,.14,1.69.2,2.38.34a69.53,69.53,0,0,0,25.46.82,6.72,6.72,0,0,1,2.53,0,18.73,18.73,0,0,1,7.86,3.35,56.25,56.25,0,0,1,5.23,4.76c3.76,3.91,7.08,8.25,11.82,11.16.15.09.17.38.33.79a13.92,13.92,0,0,1-1.65.49,41.93,41.93,0,0,1-21.23-1.72,61.1,61.1,0,0,1-12.24-5.89c-6.81-4.34-13.5-8.86-20.22-13.31C88.19,343.88,88.19,343.72,88,343.12Zm89.65-29.31c-.17.19-.34.37-.5.56-2.07-.58-4.11-1.24-6.21-1.72-6.26-1.43-12.56-2.68-18.79-4.2-4.58-1.11-9.14-2.33-13.58-3.84a51.37,51.37,0,0,1-18.88-11.33,9.16,9.16,0,0,1-1.15-1.62c3.47-.79,6.7-1.55,9.94-2.27a11.2,11.2,0,0,1,6.49.25c6.19,2.33,12.44,4.52,18.58,7a65.2,65.2,0,0,1,21.38,14A39.75,39.75,0,0,1,177.65,313.81ZM17.54,140.21c1.14.3,2.3.56,3.42.92A106.79,106.79,0,0,0,50.29,146c4.27.11,8.54.25,12.81.35a8.68,8.68,0,0,1,3.88.75A20.43,20.43,0,0,1,75,154c2.6,4,3.76,8.6,5.2,13.5a15.41,15.41,0,0,1-2-.62c-11.75-5.75-24.29-9.59-36.94-13.18-2.09-.6-4.17-1.21-6.22-1.89C28.13,149.54,22.59,145.35,17.54,140.21Zm449.15,249.3c-.24.31-.3.47-.37.48a2.74,2.74,0,0,1-1,.05,51.77,51.77,0,0,1-13.06-5.88,49.45,49.45,0,0,1-10.94-9.54A76.46,76.46,0,0,1,430,357.56a6.07,6.07,0,0,1-.2-5.49c.26-.56.4-1.15.61-1.73A45,45,0,0,0,433,340.13c0-.16.34-.31.72-.64,1.18,1.09,2.07,2.47,3.15,3.66a57.06,57.06,0,0,1,10.14,16.12c1.71,4,3.33,8.09,5,12.14,2.82,6.79,6.9,12.62,13.07,16.84C465.68,388.64,466.18,389.1,466.69,389.51Zm-16.32,125,.25.44a15,15,0,0,1-1.52,1c-9.5,4.94-19,9.84-28.51,14.8a5.15,5.15,0,0,1-3.54.5,20.3,20.3,0,0,1-8.39-3.94A55.38,55.38,0,0,1,400,519c-2.78-3.22-5.37-6.61-8.88-9.14-.11-.08,0-.38,0-.78a15.82,15.82,0,0,1,1.8.22c3.19.72,6.37,1.47,9.56,2.21,5.3,1.22,10.59,2.55,15.92,3.66a70.22,70.22,0,0,0,29.19-.12C448.46,514.8,449.41,514.65,450.37,514.47ZM150.91,293.69a17,17,0,0,1-2-.48c-4.28-1.56-8.54-3.19-12.84-4.73-12.14-4.36-22-11.73-30.42-21.12-.28-.32-.78-.61-.2-1.34.36,0,.81.07,1.26.13,4.09.56,8.16,1.24,12.27,1.64,3.26.33,6.57.38,9.87.43a9.71,9.71,0,0,1,4.8,1.35A23.92,23.92,0,0,1,144,280.83c1.87,4.22,3.82,8.4,6.84,12C151,292.92,150.88,293.2,150.91,293.69ZM104.47,24.75a6.67,6.67,0,0,1,1.11,1C109,30.81,112.49,35.87,115.86,41a8.38,8.38,0,0,1,1,3,19.94,19.94,0,0,1-1.45,12c-1.27,2.92-2.67,5.78-4,8.66a44.76,44.76,0,0,0-3.47,8.86c-.06.26-.39.49-.79.94-.35-1-.68-1.7-.9-2.48-1.93-7-3.73-14-5.8-20.87a22.38,22.38,0,0,1,1.22-16.5A23.22,23.22,0,0,0,104,25.85,4.14,4.14,0,0,1,104.47,24.75ZM153.12,330a13,13,0,0,1,1.24,1,27,27,0,0,0,10.26,6.35c4.62,1.71,9.29,3.32,13.95,4.94a60.32,60.32,0,0,1,24.12,14.91c.62.64,1.11,1.38,2.05,2.57a31.42,31.42,0,0,1-5.2-.79c-1.56-.27-3.1-.59-4.66-.85s-3.12-.52-4.69-.69-3.16-.29-4.75-.33-3.19.05-4.78,0-3.17.49-4.86,0a20,20,0,0,0-6.71-8.49c-2.66-2-5.45-3.83-8.3-5.56a56.52,56.52,0,0,1-9-6.41,20.57,20.57,0,0,1-3.48-3.87C150.22,331.08,150.22,331.08,153.12,330Zm142.35-1.69-.65,0c-.84-3.69-1.61-7.39-2.55-11a16.72,16.72,0,0,1,.21-8.54,67.29,67.29,0,0,1,7.29-17.21c1.81-3.08,3.78-6.08,5.68-9.11a62.21,62.21,0,0,0,6.9-13.82c.08-.26.38-.46.76-.9a9.09,9.09,0,0,1,.53,4.06A64.69,64.69,0,0,1,308,298.59c-1.71,3.93-3.6,7.8-5.45,11.68a89.71,89.71,0,0,0-6.63,17.08A4.81,4.81,0,0,1,295.47,328.32ZM473,433.67l-.69-.16c-.15-.68-.35-1.35-.45-2-.57-4.14-1-8.31-1.73-12.41a14.52,14.52,0,0,1,1.82-9.78,32.33,32.33,0,0,1,2.54-4.08q4.21-5.65,8.58-11.21a38,38,0,0,0,8.5-22.61c0-.58.12-1.16.26-2.44a12.21,12.21,0,0,1,1,2.08c.59,2.54,1.16,5.09,1.68,7.66,1.28,6.27-.42,12.16-3.42,17.85a50.22,50.22,0,0,1-2.76,4.38c-.82,1.23-1.72,2.42-2.58,3.63a56.8,56.8,0,0,0-8.69,18.19c-.67,2.47-1.51,4.9-2.38,7.31A37.28,37.28,0,0,1,473,433.67ZM150.61,365.16c0,.42.1.73,0,.87a18.75,18.75,0,0,1-5.95,5,29.32,29.32,0,0,1-11.82,2.78c-3.56.17-7.12.11-10.67.36a41.34,41.34,0,0,0-8.75,1.19,4.5,4.5,0,0,1-4.91-1c-.26-.24-.53-.47-.8-.7-5.36-4.52-10-9.73-14.8-14.81a13.35,13.35,0,0,1-1.07-1.52,3.2,3.2,0,0,1,2.67.09c2.48.92,4.93,1.9,7.4,2.85a21.21,21.21,0,0,0,8.82,1.88,10.78,10.78,0,0,1,5.24,1.11,44.73,44.73,0,0,0,27.82,3.23c1.7-.32,3.39-.7,5.09-1C149.43,365.28,150,365.24,150.61,365.16ZM92.9,11.32c.1.06.25.1.26.17a11.55,11.55,0,0,1,.19,1.76A104.76,104.76,0,0,0,94.44,28.6a255.84,255.84,0,0,0,6.4,31.76c.26,1,.42,2,.63,3-.51,0-.82.07-1,0C97.77,61.23,95,59.24,92.37,57a18.83,18.83,0,0,1-4.62-5.76A37.72,37.72,0,0,1,83.91,33a15.56,15.56,0,0,1,1.48-6.32c2.22-4.78,4.39-9.58,6.6-14.36C92.17,11.89,92.24,11.31,92.9,11.32Zm208.38,407c-1.09-3.56-3.85-5.21-6.8-6.62a29.57,29.57,0,0,0-10.16-2.5c-.8-.08-1.58-.27-3.1-.54,2-1,3.32-1.58,4.57-2.32a4.76,4.76,0,0,1,4.52-.38A33.47,33.47,0,0,0,303.19,408c2.08,0,4.16,0,6.24.09a41.86,41.86,0,0,1,13.47,2.78,19.66,19.66,0,0,1,10.62,9.54A10.25,10.25,0,0,1,335,426c-5.68-1.73-11-3.47-16.47-5A80.66,80.66,0,0,0,301.28,418.35ZM109,87,96.25,85.05a11.51,11.51,0,0,1-2.13-.45C92,83.81,89.85,83,87.78,82.1A7.49,7.49,0,0,1,84.48,79a41.82,41.82,0,0,1-6-18.42,10.21,10.21,0,0,1,.25-1.71c1.07,1.06,1.92,1.85,2.69,2.71a14.74,14.74,0,0,0,5.5,3.86c2.11.83,4.31,1.48,6.51,2.12,1.73.5,3.51.88,5.28,1.29a8.73,8.73,0,0,1,6.64,6.29c1.06,3.27,2.2,6.51,3.27,9.77A17.39,17.39,0,0,1,109,87ZM428.78,288.33c-1.66.19-2.71-.68-3.73-1.4a26.38,26.38,0,0,1-7.59-8.32,8,8,0,0,1-.9-6.48c1.55-6,2.9-12,4.27-18.08a71.32,71.32,0,0,0,2-16.86,15.79,15.79,0,0,1,.26-2.15c.35.34.6.47.67.67a69.67,69.67,0,0,1,5.27,25.7c0,1.92,0,3.84,0,5.76,0,6.59,0,13.19,0,19.79A10.43,10.43,0,0,1,428.78,288.33Zm-41.15,256a6.28,6.28,0,0,1-4.48,0,25.41,25.41,0,0,1-8.32-4.12,86.91,86.91,0,0,1-14.18-12.34c-4.57-4.84-9.5-9.25-15.8-11.94-.19-.08-.31-.31-.52-.54.3-.2.56-.51.88-.58,4.69-1.11,9.39-2.13,14.07-3.29a3.61,3.61,0,0,1,3.4.61c.65.52,1.32,1,1.93,1.57a32.6,32.6,0,0,1,6.93,9.34c1.52,2.94,3,5.89,4.45,8.88A26.07,26.07,0,0,0,387.63,544.29ZM217.53,362.81c-2.23,2.94-4.3,5.85-6.57,8.61a33.22,33.22,0,0,1-4.28,4.1,7.08,7.08,0,0,1-5.52,1.66c-2.17-.26-4.35-.44-6.5-.78a61.12,61.12,0,0,0-13.46-.94,8.91,8.91,0,0,1-1.53-.18c2.68-3.63,5.19-7.09,7.76-10.5a20.91,20.91,0,0,1,2.3-2.41,7.39,7.39,0,0,1,7.39-2.07A70.88,70.88,0,0,0,217,362.57,2.75,2.75,0,0,1,217.53,362.81ZM438.68,320a7.83,7.83,0,0,1-1.46-.38,113.06,113.06,0,0,1-16.49-12.93c-3.36-3.14-4.94-7.43-6.27-11.77a5.28,5.28,0,0,1-.14-1.78c.2-4.09.41-8.17.66-12.26a13,13,0,0,1,.48-2c2.15,2.53,4,4.81,5.93,6.92a16.84,16.84,0,0,0,7.88,4.65C430.69,300.83,433.06,310.73,438.68,320ZM425.25,530.35c1.38,1.14,1.35,2.65,1.5,4,.57,5.32-.38,10.55-1.76,15.76a6,6,0,0,1-2.79,3.71,38.62,38.62,0,0,1-17.45,5.85,10.9,10.9,0,0,1-2-.23,23.42,23.42,0,0,0,6.34-9.5c1.24-3.67.71-7.39.84-11.36C415,535.8,420.05,533,425.25,530.35ZM351.18,312.08a10.16,10.16,0,0,1-1.75-.22,38.15,38.15,0,0,1-12.72-7.74,19.4,19.4,0,0,1-4.62-5.78,6.17,6.17,0,0,1-.65-4.14,43.39,43.39,0,0,1,1.46-6c2-5.37,4.25-10.68,6.42-16,.11-.29.5-.49.78-.76a5.81,5.81,0,0,1,2.12,3.25,34.56,34.56,0,0,1,1.66,6.53c.34,3.31.29,6.68.34,10,0,2.28-.2,4.58-.05,6.83.33,4.92,1.89,9.3,5.79,12.52A12.58,12.58,0,0,1,351.18,312.08ZM153.89,272.93a3.46,3.46,0,0,1,.87.18c6,3.3,10.79,7.76,13.63,14,.92,2.05,1.74,4.14,2.54,6.24,1.75,4.66,3.45,9.33,5.19,14,.35.94.8,1.85,1.28,2.92a4.14,4.14,0,0,1-.9-.31c-.56-.44-1.12-.89-1.63-1.38a59.67,59.67,0,0,0-14.76-10.5,6.81,6.81,0,0,1-4-5.45,44.33,44.33,0,0,1-.49-6.42c0-4.23-.21-8.39-1.86-12.3C153.68,273.73,153.81,273.46,153.89,272.93Zm214.84,36.79a6.87,6.87,0,0,1,.92,4,79.88,79.88,0,0,1-4.08,28.17c-2,6.26-4,12.54-6,18.8a8,8,0,0,1-.86,1.36A86.06,86.06,0,0,1,354.62,347a9.45,9.45,0,0,1,.16-3.21,33.45,33.45,0,0,1,3.35-10q2.44-4.74,5.06-9.41a47.82,47.82,0,0,0,4.88-12.22C368.2,311.58,368.38,311,368.73,309.72ZM355.61,433.84a12.45,12.45,0,0,1-.65,1.84,40.54,40.54,0,0,1-8.66,11A62,62,0,0,1,334,455.1a49,49,0,0,1-19.51,5.44,4.51,4.51,0,0,1-4.38-2.15l3.44-.6a36.16,36.16,0,0,0,16.89-7.33,47.47,47.47,0,0,0,12.7-16.25l1.3-2.71ZM223.9,210.39c.08.79.2,1.58.24,2.38a64.13,64.13,0,0,1-3.28,25c-2.44,7-5.27,14-7.94,20.93-.06.17-.33.27-.75.59-.13-.78-.25-1.44-.35-2.1-.51-3.42-.85-6.87-1.54-10.25a25.18,25.18,0,0,1,3.84-19.77l2.46-3.7A70,70,0,0,0,223.9,210.39ZM355.56,542.7a29,29,0,0,1-3.39,5.5c-3.28,4.88-7.94,7.28-13.6,8.18a4.58,4.58,0,0,1-4.77-1.72,46.75,46.75,0,0,1-3.87-5.06c-2.06-3.43-3.9-7-5.81-10.54-.07-.13.12-.41.25-.82a16,16,0,0,1,2,.36c1.85.54,3.67,1.18,5.52,1.72,6.09,1.78,12.32,2.69,18.76,1.17A5,5,0,0,1,355.56,542.7ZM257.21,420.07c.58-.52.73-.74.93-.82a164.77,164.77,0,0,0,18-7.89,8.61,8.61,0,0,1,3.17-.79,30.37,30.37,0,0,1,13.87,2.19,15.17,15.17,0,0,1,5.06,3.26,10.09,10.09,0,0,1,1.16,2c-2.18.38-4,.19-5.79.4s-3.66.36-5.48.66-3.62.72-5.41,1.17-3.57,1-5.34,1.54-3.52,1.18-5.27,1.78l-5.45,1.85A20.31,20.31,0,0,0,257.21,420.07Zm48.56,99.61a4.65,4.65,0,0,1,1.09-.21,10.7,10.7,0,0,1,1.8.27c9.87,2.53,19.48,5.6,27.93,11.24,4.05,2.7,8.21,5.27,12.3,7.93a5.39,5.39,0,0,1,.9.94c-.39.27-.57.49-.78.53-.73.13-1.46.24-2.19.31a38.61,38.61,0,0,1-13.73-1.52c-3.48-1-6.94-2-10.45-3.06C315.42,526.77,316.51,527.24,305.77,519.68Zm66.51-84.13c-2.92,2-5.38,3.71-7.82,5.43-1.52,1.07-3.06,2.14-4.52,3.3-3,2.4-5.92,4.94-9,7.28-6.79,5.22-14.15,9.23-22.57,11a23.11,23.11,0,0,1-9.47.24,23.49,23.49,0,0,1-2.23-.79c18.23-3.3,32.22-11.75,40.86-27.76C362,434.12,369.4,434.74,372.28,435.55Zm-18-96.22-.78-.09a13.43,13.43,0,0,1-.38-2c-.19-4.07-.29-8.15-.51-12.22a9,9,0,0,1,1.59-5.49,55.9,55.9,0,0,0,9-26.81,17.9,17.9,0,0,1,.58-2.37c.87,2.12,1.42,3.54,2,4.91,2.28,5.09,2.14,10.43,1,15.88a40.59,40.59,0,0,1-3.71,10.34C360,327.37,356.39,333,354.28,339.33Zm-1.09-21.43c-.63-1.27-.28-2.46-.2-3.6.51-7.57,1.07-15.13,1.58-22.7A58.6,58.6,0,0,0,352,270.05c-.73-2.38-1.51-4.74-2.2-7.13-.87-3-1.7-5.93-2.47-8.91-.29-1.12-.37-2.29-.55-3.44a5.48,5.48,0,0,1,1.45,2.41,189.48,189.48,0,0,0,7.68,19.46c1.76,3.87,3.55,7.73,5.26,11.62a8.2,8.2,0,0,1,.79,3.06A55,55,0,0,1,354,317,6,6,0,0,1,353.19,317.9Zm140.28,77.79.53,0a16.57,16.57,0,0,1-.24,2.12c-.93,3.65-1.68,7.36-2.93,10.92-1.86,5.3-4,10.52-6.2,15.71-3.42,8-6.48,16.13-8.16,24.63-.09.49,0,1.2-.83,1.33-.64-1.72-2.79-11.57-2.73-12.85a3.82,3.82,0,0,1,.48-1.71c2.69-4.37,4.09-9.16,5.44-14a44.54,44.54,0,0,1,5.24-12.11C487.11,405,490.33,400.38,493.47,395.69ZM451.31,517.35a2.67,2.67,0,0,1-.18.74c-4.47,6.52-8.89,13.07-13.43,19.55A71.22,71.22,0,0,1,428.19,549a16.58,16.58,0,0,1-1.45,1c.47-2.74,1-5,1.2-7.22a44.68,44.68,0,0,0,.3-6.83,66,66,0,0,0-.89-6.56c1.21-.85,21.34-11.49,22.89-12.08A3.18,3.18,0,0,1,451.31,517.35ZM113,377a18.29,18.29,0,0,1,6.52-1.3c2.82-.16,5.64-.15,8.46-.3,3.19-.18,6.38-.31,9.55-.72a21.63,21.63,0,0,0,15.22-9.11c1.22-1.67,1.26-1.65,3.86-1.7,0,.23,0,.53-.11.69-2.18,2.7-4.32,5.44-6.6,8.06a39.09,39.09,0,0,1-17.27,12,7.7,7.7,0,0,1-4.67.26,44.91,44.91,0,0,1-14.19-6.78C113.47,377.93,113.34,377.57,113,377Zm5.16-264.8c-.72-.54-1.08-.78-1.4-1.06-4.49-3.85-8.89-7.8-13.46-11.55A132.06,132.06,0,0,1,89.9,86.42c-.33-.36-1-.74-.22-1.71,3.61,1.51,7.56,2,11.53,2.46a39.56,39.56,0,0,1,5,.94,10.65,10.65,0,0,1,3,1.23,4,4,0,0,1,1.6,1.78c2.4,6.29,4.72,12.62,7,18.95A12.63,12.63,0,0,1,118.12,112.22ZM351,314.24c-.1,4.66-.19,9.09-.31,13.52,0,.29-.3.59-.53,1a23,23,0,0,1-10.56-4.32,4.8,4.8,0,0,1-1.91-2.87A99.29,99.29,0,0,0,333.2,307c-.56-1.52-1.32-3-1.08-5,2.39,1.22,3.51,3.61,5.6,4.93s4.1,2.84,6.28,4S348.53,313.1,351,314.24Zm-.25,16.37c.1,1.29.2,2.35.26,3.42a79.52,79.52,0,0,0,2.21,15.55c.84,3.33,1.76,6.64,2.6,10a16.8,16.8,0,0,1,.21,2.38c-10.57-9.72-15.2-21.83-17.21-35.76,2.17,1,3.93,1.9,5.8,2.59S348.52,330,350.76,330.61ZM181.48,128.05c.22.52.46,1,.66,1.58a140.56,140.56,0,0,0,7,16.31c2.46,4.62,3.12,9.68,3.23,14.86A32.74,32.74,0,0,1,190.09,174c-.19.48-.27,1.2-1.07,1.22C185.61,167.27,180.3,135.92,181.48,128.05Zm37.6,62.87a43.82,43.82,0,0,1,3.81,11.45,3.85,3.85,0,0,1,0,1.07c-.57,5.2-1.64,10.26-4.64,14.84-1.69,2.57-3.35,5.17-5.06,7.73a28.39,28.39,0,0,0-4.15,9c-.11.44-.26.87-.4,1.34-.94-.32-.89-1-1-1.54a26,26,0,0,1,1.56-12.45c1.81-4.92,3.79-9.79,5.77-14.65s3.5-9.64,3.57-14.77A14.64,14.64,0,0,1,219.08,190.92ZM102.65,68.49c-1.68-.5-2.91-.9-4.15-1.23-1.41-.37-2.83-.67-4.24-1a38.21,38.21,0,0,1-3.85-1,28.64,28.64,0,0,1-4.59-2,16.15,16.15,0,0,1-6.47-6.9,8.53,8.53,0,0,1-.92-4.82,67.09,67.09,0,0,1,2.9-13.88c.13-.41.17-1,1-.9.13,1,.28,2,.4,3.09a38.06,38.06,0,0,0,2.09,8.65,22.51,22.51,0,0,0,7,10.08c1.94,1.57,4,3,5.88,4.62,1.46,1.2,2.83,2.5,4.2,3.81C102.21,67.22,102.29,67.7,102.65,68.49Zm90.82,86.41a12.22,12.22,0,0,1,1.25,1.09c2.61,3.22,3.54,7.16,4.48,11.1a27.23,27.23,0,0,1-1,16c-1,2.86-1.92,5.79-2.9,8.68a4,4,0,0,1-.66.88,3.71,3.71,0,0,1-.69-.89c-1.25-3.71-2.42-7.44-3.73-11.12a5.08,5.08,0,0,1,.39-4.16,36.05,36.05,0,0,0,3.14-18.41C193.65,157.24,193.58,156.41,193.47,154.9Zm212.1,315c-6.28.39-11.76.83-17.24,1a24,24,0,0,1-6.5-.68c-4.33-1.06-8.58-2.38-12.85-3.62-.52-.15-1.19-.24-1.23-1.13a2.94,2.94,0,0,1,.87-.43c7.06-.93,14.12-1.86,21.19-2.7a8.11,8.11,0,0,1,3.21.35,37.37,37.37,0,0,1,10.81,5.44A17.76,17.76,0,0,1,405.57,469.86Zm-271.84-249c-1-.39-1.65-.45-2-.8a37.55,37.55,0,0,1-12.66-28c-.08-2.15-.07-4.31,0-6.47a58.15,58.15,0,0,0-.89-13.19,8.52,8.52,0,0,1,.07-1.44c.82,1.17,1.46,2,1.94,2.82.91,1.65,1.7,3.37,2.6,5a12.1,12.1,0,0,1,1.44,5.8c0,3.23,0,6.47.2,9.69a47.84,47.84,0,0,0,8.51,24.87A18.53,18.53,0,0,1,133.73,220.84ZM65.13,338.25l.32-.65c1.52.32,3.06.59,4.57,1a75,75,0,0,1,23.84,11.25c4.69,3.21,9.5,6.27,14.25,9.41a7.48,7.48,0,0,1,1,1,13.45,13.45,0,0,1-4.76-.68c-1.6-.52-3.14-1.2-4.69-1.82-3-1.21-6-2.48-9.33-2.67a4.39,4.39,0,0,1-2.8-1.42,98.74,98.74,0,0,0-20.7-14.33C66.25,339,65.7,338.61,65.13,338.25ZM209.76,430l3.2-.48c5.12-.77,10.27-1.34,15.35-2.36a39,39,0,0,1,21.87,2.19,11.18,11.18,0,0,1,1.43.81,2.48,2.48,0,0,1-2,1.21,60.94,60.94,0,0,1-17.16,2.3C224.71,433.59,217.25,432,209.76,430ZM136.2,269a42.25,42.25,0,0,1,11.44,1.27A6.43,6.43,0,0,1,152.1,274a20,20,0,0,1,1.91,7.56c.23,3.93.36,7.87.52,11.81,0,.08-.14.17-.29.35-.27-.09-.7-.11-.87-.32a40.82,40.82,0,0,1-3.71-4.73,64.19,64.19,0,0,1-3.89-7.56,26.54,26.54,0,0,0-8.37-10.81A9.56,9.56,0,0,1,136.2,269ZM408.26,539.72c.09,1.22.23,2.27.22,3.32a25.92,25.92,0,0,1-.26,4.31,18.68,18.68,0,0,1-6,10.71,6.25,6.25,0,0,1-5,1.89c-2.3-.23-4.63-.25-6.94-.31-1.82,0-3.64,0-6.27,0,2.09-.92,3.43-1.48,4.74-2.11A44.09,44.09,0,0,0,399.75,550a21.08,21.08,0,0,0,5.47-7.83A3.35,3.35,0,0,1,408.26,539.72ZM129.56,287.51c-4.14,1.28-7.42,2.26-10.89,2.29a4.62,4.62,0,0,1-4-1.85A88.55,88.55,0,0,1,106,274.58c-1.3-2.48-2.82-4.87-3.64-8,4.31,4.05,8.24,7.95,12.41,11.58S123.83,284.59,129.56,287.51ZM396.43,461.88a14.14,14.14,0,0,1,1.63-.34,31,31,0,0,1,14.55,2.5c6.12,2.65,11.28,6.61,16.18,10.93.2.18.23.56.49,1.26-1.33-.47-2.33-.8-3.31-1.17-4.39-1.64-8.77-3.35-13.45-4.11a14.57,14.57,0,0,1-7-3.22A102.39,102.39,0,0,0,396.43,461.88ZM208.85,376.13c1.61-1.92,2.91-3.38,4.1-4.92s2.48-3.38,3.72-5.07a6.47,6.47,0,0,1,.72-.85,10.51,10.51,0,0,1,6.76-3.48c2.31-.17,4.61-.71,6.92-1.06.69-.1,1.39-.09,2.26-.14C228.08,367.27,216.06,375.87,208.85,376.13Zm258.62-6.21c-.65-2.51-1.36-4.85-.08-7.54A23.36,23.36,0,0,0,469,356.8a38,38,0,0,0,.09-13.94c-.11-.58-.26-1.15.57-1.54a46.89,46.89,0,0,0,3.82,3.63c1.79,1.39,2.17,3.2,2.05,5.34a36.18,36.18,0,0,1-7.2,19.25C468.23,369.7,467.92,369.73,467.47,369.92ZM98.63,38.15c-1.1-.35-1-1.16-1.11-1.83-.68-4.95-1.44-9.89-2-14.87-.33-3.07-.31-6.2-.41-9.31,0-.57-.1-1.22.71-1.54,1.72,2.79,3.38,5.63,5.19,8.38a9.35,9.35,0,0,1,1.47,4.66C102.85,28.85,100.7,33.47,98.63,38.15Zm141.64,387c0-.19.07-.37.11-.56,3.91-1.13,7.81-2.29,11.74-3.37a6.55,6.55,0,0,1,2.53-.15,19,19,0,0,1,8.65,3.32,1.75,1.75,0,0,1,.93,2,71.13,71.13,0,0,1-9.6,3.33c-1.88-.81-3.39-1.54-5-2.12a45.56,45.56,0,0,0-4.49-1.35C243.55,425.84,241.9,425.53,240.27,425.18Zm160.34,47c6-.76,12.78.18,16.33,2.34-.56.8-1.13,1.59-1.68,2.39a3.72,3.72,0,0,1-3.81,1.69,30.35,30.35,0,0,0-9.52.74c-1.57.35-3.13.75-4.7,1.06a11.38,11.38,0,0,1-1.76.06C397.24,477.57,398.92,474.86,400.61,472.15ZM204.9,432.71c0-.22.11-.44.17-.66,1.06.1,2.13.18,3.19.31s2.16.32,3.24.49,1.91.32,2.86.49l3.21.59c1.07.19,2.14.37,3.22.54s2.16.32,3.24.46,1.93.22,2.9.3,2.19.09,3.28.21,2.14-.16,3.1.38c-.16.32-.21.61-.38.71a38.68,38.68,0,0,1-10.85,4.73,3.77,3.77,0,0,1-3.69-.72,47.71,47.71,0,0,0-10-6.19C207.25,433.79,206.07,433.25,204.9,432.71Zm77.55-245.38c1,2.38,1,3.75-.14,10.93-1.11,6.94-2.89,13.7-7,20a6.43,6.43,0,0,1-2.3-3.53c2.26-4.24,4.59-8.59,5.88-13.29S281.27,192.08,282.45,187.33ZM390.19,472.92c0,.47,0,.62-.07.69a4.12,4.12,0,0,1-.77.79,20.56,20.56,0,0,1-8.58,3.25,4.36,4.36,0,0,1-3.94-1.22c-2.21-2.12-4.49-4.16-6.72-6.26a13.09,13.09,0,0,1-1.07-1.52c2.79.83,4.93,1.54,7.11,2.1,2.33.6,4.67,1.18,7.05,1.55S387.76,472.71,390.19,472.92Zm8.29-.73a17.29,17.29,0,0,1-6.17,8.7,3.1,3.1,0,0,1-1.37.55,12.39,12.39,0,0,1-9.22-1.9c.13-.26.16-.42.24-.47a4.71,4.71,0,0,1,1-.43c3.62-1,7-2.34,9.64-5.25a3.1,3.1,0,0,1,2.32-1Zm34.61,8.06c-5,1.37-11.69.7-17.16-1.42a2.85,2.85,0,0,1,.29-1c.8-1.06,1.67-2.08,2.64-3.26A99,99,0,0,1,433.09,480.25Z"/></g></g></svg>