<?xml version="1.0" encoding="utf-8"?>
<svg version="1.1" id="hotel-uyut-logo" xmlns="http://www.w3.org/2000/svg" xmlns:xlink="http://www.w3.org/1999/xlink"
	x="0px" y="0px" viewBox="0 0 150 48" style="enable-background:new 0 0 150 48;" xml:space="preserve">
	<style type="text/css">
		.st0 {
			fill: #2D353B;
		}
	</style>
	<g>
		<path class="st0" d="M75,1c18.9,0,35,7.7,35.9,17.1L111,19h0.9h32.2c0.4,2.6,2.4,4.6,4.9,5.1v18c-2.5,0.4-4.5,2.4-4.9,4.9H5.9
		c-0.4-2.5-2.4-4.5-4.9-4.9v-18c2.5-0.4,4.5-2.5,4.9-5h32.2H39l0.1-0.9c0.4-4.5,4.3-8.8,10.9-12C56.7,2.8,65.6,1,75,1 M75,0
		C55.2,0,39.1,8,38.1,18H5c0,0,0,0.1,0,0.1c0,2.8-2.2,5-5,5V43c2.7,0,5,2.2,5,5H145c0-2.8,2.2-5,5-5c0,0,0,0,0,0V23.2c0,0,0,0,0,0
		c-2.7,0-5-2.2-5-5c0,0,0,0,0,0c0,0,0-0.1,0-0.1h-33.1C110.9,8,94.8,0,75,0L75,0z" />
	</g>
</svg>